<?xml version="1.0" encoding="iso-8859-1"?>
<!-- Generator: Adobe Illustrator 24.0.2, SVG Export Plug-In . SVG Version: 6.00 Build 0)  -->
<svg version="1.1" id="Layer_1" xmlns="http://www.w3.org/2000/svg" xmlns:xlink="http://www.w3.org/1999/xlink" x="0px" y="0px"
	 viewBox="0 0 386.915 142.774" style="enable-background:new 0 0 386.915 142.774;" xml:space="preserve">
<text transform="matrix(1 0 0 1 42.1278 -331.2793)" style="font-family:'KhmerPenEng'; font-size:100px;">&#x179B;&#x17BC;&#x179C;&#x17B8; &#x179C;&#x17BC;&#x1790;&#x1793;</text>
<g>
	<path d="M104.25,103.223c-2.897,3.255-5.786,5.225-8.667,5.908s-6.6,1.009-11.157,0.977l0.049-0.146
		c-1.042,0.065-2.148,0.049-3.32-0.049c-3.906-0.651-7.202-1.904-9.888-3.76s-4.696-4.883-6.03-9.082
		c-0.977-3.125-1.465-8.154-1.465-15.088V55.078c-0.554-3.223-1.595-5.273-3.125-6.152c-2.051-1.172-4.541-1.432-7.471-0.781
		c-3.027,0.326-5.355,2.686-6.982,7.08c-0.651,1.433-0.814,6.429-0.488,14.99v39.941H31.692V65.234c0-6.934,0.488-11.8,1.465-14.6
		c1.334-4.524,3.345-7.796,6.03-9.814c2.686-2.018,5.981-3.19,9.888-3.516c3.711-0.651,6.99-0.83,9.839-0.537
		c2.848,0.293,5.705,0.993,8.569,2.1c2.311,0.944,4.443,2.441,6.396,4.492c2.604,2.344,3.906,6.201,3.906,11.572v22.07
		c-0.326,8.562,0.163,14.209,1.465,16.943c0.977,1.791,2.653,3.174,5.029,4.15c3.255,0.326,5.485,0.244,6.689-0.244
		c1.204-0.488,2.116-1.31,2.734-2.466c0.618-1.155,1.09-2.856,1.416-5.103c0.228-1.563,0.276-6.543,0.146-14.941V36.865h14.063
		v35.01c0,5.892,0.065,10.335,0.195,13.33C109.1,93.343,107.342,99.349,104.25,103.223z"/>
	<path d="M87.697,139.355c-3.06,0-5.135-0.285-6.226-0.854c-1.09-0.57-1.725-1.652-1.904-3.247
		c-0.179-1.595-0.269-3.337-0.269-5.225v-15.283h7.666v9.326v6.445c-0.065,2.083,1.074,3.288,3.418,3.613
		c2.181,0.423,3.304-0.472,3.369-2.686v-2.783v-13.916h14.307v14.697c0.098,3.776-0.098,6.226-0.586,7.349s-1.237,1.831-2.246,2.124
		c-1.009,0.293-3.19,0.439-6.543,0.439H93.41H87.697z"/>
	<path d="M167.677,59.277l-14.794,0.049c0.358-3.613-0.48-6.282-2.515-8.008c-2.035-1.725-5.412-2.588-10.132-2.588
		c-1.595,0.293-3.418,0.977-5.469,2.051c-1.53,1.693-2.132,3.451-1.807,5.273c0,1.66,0.716,3.076,2.148,4.248
		c4.427,2.148,8.366,3.711,11.816,4.688c3.45,0.977,6.697,2.409,9.741,4.297c3.043,1.888,5.436,3.857,7.178,5.908
		c1.741,2.051,2.938,5.29,3.588,9.717c0.326,4.655-0.082,8.569-1.221,11.743c-1.139,3.174-3.141,6.087-6.005,8.74
		c-2.865,2.653-7.243,4.143-13.135,4.468c-10.026,0.325-17.22-1.636-21.582-5.884c-4.362-4.248-6.527-10.604-6.494-19.067h14.063
		c0.195,4.98,1.261,8.48,3.198,10.498c1.937,2.019,4.451,3.027,7.544,3.027c3.027,0,5.314-0.887,6.86-2.661
		c1.546-1.774,2.319-4.272,2.319-7.495c0-1.627-0.252-2.946-0.757-3.955c-0.505-1.009-1.506-2.1-3.003-3.271
		c-2.344-1.204-5.225-2.376-8.643-3.516c-6.445-2.213-11.068-4.362-13.867-6.445c-4.72-3.223-7.243-7.91-7.568-14.063
		c0-4.199,0.952-7.853,2.856-10.962c1.904-3.108,4.395-5.396,7.471-6.86s6.876-2.246,11.401-2.344
		c5.403-0.065,9.44,1.156,12.109,3.662v-9.082h14.697V59.277z"/>
	<path d="M156.105,19.482H99.416V7.471h42.383V0h14.307V19.482z"/>
	<path d="M254.054,59.277l-14.795,0.049c0.357-3.613-0.48-6.282-2.515-8.008c-2.035-1.725-5.412-2.588-10.132-2.588
		c-1.596,0.293-3.418,0.977-5.469,2.051c-1.53,1.693-2.133,3.451-1.807,5.273c0,1.66,0.716,3.076,2.148,4.248
		c4.427,2.148,8.365,3.711,11.816,4.688c3.45,0.977,6.697,2.409,9.741,4.297c3.043,1.888,5.436,3.857,7.178,5.908
		c1.741,2.051,2.938,5.29,3.589,9.717c0.325,4.655-0.082,8.569-1.221,11.743c-1.14,3.174-3.142,6.087-6.006,8.74
		c-2.865,2.653-7.243,4.143-13.135,4.468c-10.026,0.325-17.221-1.636-21.582-5.884c-4.362-4.248-6.527-10.604-6.494-19.067h14.062
		c0.195,4.98,1.261,8.48,3.198,10.498c1.937,2.019,4.451,3.027,7.544,3.027c3.027,0,5.313-0.887,6.86-2.661
		c1.546-1.774,2.319-4.272,2.319-7.495c0-1.627-0.253-2.946-0.757-3.955c-0.505-1.009-1.506-2.1-3.003-3.271
		c-2.344-1.204-5.225-2.376-8.643-3.516c-6.445-2.213-11.068-4.362-13.867-6.445c-4.72-3.223-7.243-7.91-7.568-14.063
		c0-4.199,0.952-7.853,2.856-10.962c1.904-3.108,4.394-5.396,7.47-6.86s6.876-2.246,11.401-2.344
		c5.403-0.065,9.439,1.156,12.109,3.662v-9.082h14.697V59.277z"/>
	<path d="M232.667,139.355c-3.06,0-5.135-0.285-6.226-0.854c-1.09-0.57-1.725-1.652-1.904-3.247
		c-0.179-1.595-0.269-3.337-0.269-5.225v-15.283h7.666v9.326v6.445c-0.064,2.083,1.074,3.288,3.418,3.613
		c2.182,0.423,3.305-0.472,3.369-2.686v-2.783v-13.916h14.307v14.697c0.098,3.776-0.098,6.226-0.586,7.349s-1.236,1.831-2.246,2.124
		c-1.009,0.293-3.189,0.439-6.543,0.439h-5.273H232.667z"/>
	<path d="M321.095,48.73h-57.324V36.719h42.822v-5.322h14.453L321.095,48.73z M307.716,55.957h13.281v20.557
		c0,6.869-0.391,12.142-1.172,15.82c-0.781,3.679-2.222,6.779-4.321,9.302c-2.1,2.523-4.907,4.533-8.423,6.03
		c-3.516,1.498-8.105,2.246-13.77,2.246c-6.836,0-12.021-0.813-15.552-2.441c-3.532-1.627-6.323-3.751-8.374-6.372
		c-2.051-2.62-3.402-5.363-4.053-8.228c-0.944-4.231-1.416-9.473-1.416-15.723V52.539h14.453v25.195c0,4.33,0.179,7.438,0.537,9.326
		c0.618,3.06,2.091,5.501,4.419,7.324c2.327,1.823,5.509,2.734,9.546,2.734c4.102,0,7.193-0.862,9.277-2.588
		c2.083-1.725,3.336-3.849,3.76-6.372c0.423-2.522,0.635-5.705,0.635-9.546V64.99h-3.711v-9.082h4.883V55.957z"/>
	<path d="M386.915,68.604h0.098v20.508c0,1.726-0.269,3.988-0.806,6.787c-0.537,2.8-1.481,5.127-2.832,6.982
		c-1.352,1.855-3.41,3.41-6.177,4.663c-2.768,1.253-6.527,2.043-11.279,2.368c-9.733,0-16.488-2.767-20.264-8.301v8.105H330.86
		V68.115l14.355,3.418v4.932c0,5.469,0.357,9.196,1.074,11.182c0.716,1.986,1.904,3.874,3.564,5.664
		c1.66,1.791,3.678,3.174,6.055,4.15c2.376,0.977,4.761,1.546,7.153,1.709c2.393,0.163,4.517-0.293,6.372-1.367
		s2.864-2.93,3.027-5.566c0.13-1.725,0.195-8.057,0.195-18.994l-42.188-9.668l0.342-0.488h-0.049V59.57
		c0-6.868,0.374-11.189,1.123-12.964c0.748-1.774,1.497-3.198,2.246-4.272c0.748-1.074,1.978-2.156,3.687-3.247
		c1.709-1.09,4.565-1.88,8.569-2.368c4.329-0.293,17.854-0.309,40.576-0.049v12.598h-36.865c-3.256,1.107-4.883,3.841-4.883,8.203
		v1.611L386.915,68.604z"/>
</g>
<text transform="matrix(1 0 0 1 -413.1062 -270.5134)" style="font-family:'Koulen'; font-size:100px;">&#x179B;&#x17BC;&#x179C;&#x17B8; &#x179C;&#x17BC;&#x1790;&#x1793;</text>
<path style="fill:none;" d="M38.553,110.156"/>
<g>
	<path d="M45.553,110.156c-0.042,0.574-0.096,0.836-0.15,1.221l-0.182,1.02c-0.128,0.668-0.272,1.315-0.429,1.956
		c-0.308,1.282-0.681,2.528-1.089,3.758c-0.829,2.456-1.844,4.835-3.068,7.109c-2.433,4.543-5.784,8.66-9.855,11.722
		c-2.016,1.55-4.244,2.772-6.509,3.737c-2.262,0.988-4.621,1.623-6.959,2.046c-4.696,0.816-9.347,0.704-13.822,0.038
		c4.498-0.494,8.886-1.582,12.789-3.382c1.943-0.911,3.777-1.971,5.389-3.261c1.62-1.27,3.086-2.669,4.292-4.254
		c2.441-3.138,4.041-6.757,4.928-10.55c0.445-1.896,0.716-3.835,0.836-5.768c0.054-0.966,0.082-1.932,0.052-2.879
		c-0.011-0.472-0.034-0.942-0.07-1.393l-0.062-0.66c-0.027-0.176-0.053-0.475-0.09-0.462H45.553z"/>
</g>
<path style="fill:none;stroke:#000000;stroke-width:14;stroke-miterlimit:10;" d="M-4.511,90.168"/>
</svg>
